<?xml version="1.0" encoding="iso-8859-1"?>
<!-- Generator: Adobe Illustrator 19.0.0, SVG Export Plug-In . SVG Version: 6.00 Build 0)  -->
<svg version="1.1" id="Capa_1" xmlns="http://www.w3.org/2000/svg" xmlns:xlink="http://www.w3.org/1999/xlink" x="0px" y="0px"
	 viewBox="0 0 512 512" style="enable-background:new 0 0 512 512;" xml:space="preserve">
<circle style="fill:#FDE180;" cx="131.768" cy="191.851" r="104.212"/>
<circle style="fill:#FCDA60;" cx="131.768" cy="191.851" r="80.163"/>
<rect x="27.557" y="360.193" style="fill:#FDE180;" width="208.424" height="48.098"/>
<rect x="27.557" y="360.193" style="fill:#FCDA60;" width="32.065" height="48.098"/>
<rect x="27.557" y="456.389" style="fill:#FDE180;" width="208.424" height="48.098"/>
<rect x="27.557" y="456.389" style="fill:#FCDA60;" width="32.065" height="48.098"/>
<rect x="43.59" y="408.291" style="fill:#FDE9A0;" width="208.424" height="48.098"/>
<rect x="43.59" y="408.291" style="fill:#FDE180;" width="32.065" height="48.098"/>
<rect x="43.59" y="312.095" style="fill:#FDE9A0;" width="208.424" height="48.098"/>
<rect x="43.59" y="312.095" style="fill:#FDE180;" width="32.065" height="48.098"/>
<polygon style="fill:#FD947A;" points="372.259,7.473 260.03,143.751 316.144,143.751 316.144,384.24 428.373,384.24 
	428.373,143.751 484.487,143.751 "/>
<g>
	<polygon style="fill:#FD7959;" points="372.259,7.473 260.03,143.751 292.095,143.751 388.291,26.941 	"/>
	<rect x="316.143" y="143.753" style="fill:#FD7959;" width="32.065" height="240.489"/>
</g>
<path d="M131.769,303.576c61.606,0,111.727-50.121,111.727-111.727S193.376,80.121,131.769,80.121S20.042,130.242,20.042,191.849
	S70.162,303.576,131.769,303.576z M131.769,95.152c53.319,0,96.697,43.378,96.697,96.697s-43.378,96.697-96.697,96.697
	s-96.697-43.378-96.697-96.697S78.45,95.152,131.769,95.152z"/>
<path d="M137.18,240.448h-12.024c-9.117,0-16.534-7.417-16.534-16.534c0-4.15-3.365-7.515-7.515-7.515s-7.515,3.365-7.515,7.515
	c0,17.404,14.16,31.564,31.564,31.564h0.501v16.534c0,4.15,3.365,7.515,7.515,7.515c4.15,0,7.515-3.365,7.515-7.515v-16.708
	c17.975-1.768,32.065-16.967,32.065-35.398c0-19.615-15.957-35.572-35.572-35.572h-8.016c-11.327,0-20.542-9.215-20.542-20.542
	s9.215-20.542,20.542-20.542h12.024c9.117,0,16.534,7.417,16.534,16.534v8.016c0,4.15,3.365,7.515,7.515,7.515
	c4.15,0,7.515-3.365,7.515-7.515v-8.016c0-17.404-14.16-31.564-31.564-31.564h-0.501v-16.534c0-4.15-3.365-7.515-7.515-7.515
	c-4.15,0-7.515,3.365-7.515,7.515v16.708c-17.975,1.768-32.065,16.967-32.065,35.398c0,19.615,15.957,35.572,35.572,35.572h8.016
	c11.327,0,20.542,9.215,20.542,20.542C157.722,231.233,148.507,240.448,137.18,240.448z"/>
<path d="M252.014,304.578H43.59c-4.15,0-7.515,3.365-7.515,7.515v40.583h-8.517c-4.15,0-7.515,3.365-7.515,7.515v48.098
	c0,4.15,3.365,7.515,7.515,7.515h8.517v33.067h-8.517c-4.15,0-7.515,3.365-7.515,7.515v48.098c0,4.15,3.365,7.515,7.515,7.515
	h208.424c4.15,0,7.515-3.365,7.515-7.515v-40.583h8.517c4.15,0,7.515-3.365,7.515-7.515v-48.098c0-4.15-3.365-7.515-7.515-7.515
	h-8.517v-33.067h8.517c4.15,0,7.515-3.365,7.515-7.515v-48.098C259.529,307.943,256.164,304.578,252.014,304.578z M228.466,496.97
	H35.072v-33.067h193.394V496.97z M244.499,448.872H51.105v-33.067h193.394V448.872z M228.466,400.774H35.072v-33.067h193.394
	V400.774z M244.499,352.676H51.105v-33.067h193.394V352.676z"/>
<path d="M490.288,138.973L378.059,2.696c-2.96-3.594-8.643-3.594-11.603,0L254.228,138.973c-3.961,4.81-0.417,12.293,5.802,12.293
	h48.599V384.24c0,4.15,3.365,7.515,7.515,7.515h112.228c4.15,0,7.515-3.365,7.515-7.515v-31.564c0-4.15-3.365-7.515-7.515-7.515
	s-7.515,3.365-7.515,7.515v24.049H323.66V143.751c0-4.15-3.365-7.515-7.515-7.515h-40.189l96.303-116.94l96.303,116.94h-40.189
	c-4.15,0-7.515,3.365-7.515,7.515v173.353c0,4.15,3.365,7.515,7.515,7.515s7.515-3.365,7.515-7.515V151.266h48.599
	C490.704,151.266,494.25,143.784,490.288,138.973z"/>
<path d="M428.373,416.807H316.144c-4.15,0-7.515,3.365-7.515,7.515c0,4.15,3.365,7.515,7.515,7.515h112.228
	c4.15,0,7.515-3.365,7.515-7.515C435.888,420.171,432.523,416.807,428.373,416.807z"/>
<path d="M428.373,456.888H316.144c-4.15,0-7.515,3.365-7.515,7.515c0,4.15,3.365,7.515,7.515,7.515h112.228
	c4.15,0,7.515-3.365,7.515-7.515C435.888,460.253,432.523,456.888,428.373,456.888z"/>
<path d="M428.373,496.97H316.144c-4.15,0-7.515,3.365-7.515,7.515c0,4.15,3.365,7.515,7.515,7.515h112.228
	c4.15,0,7.515-3.365,7.515-7.515C435.888,500.335,432.523,496.97,428.373,496.97z"/>
<g>
</g>
<g>
</g>
<g>
</g>
<g>
</g>
<g>
</g>
<g>
</g>
<g>
</g>
<g>
</g>
<g>
</g>
<g>
</g>
<g>
</g>
<g>
</g>
<g>
</g>
<g>
</g>
<g>
</g>
</svg>
